<?xml version="1.0" encoding="iso-8859-1"?>
<!-- Generator: Adobe Illustrator 19.0.0, SVG Export Plug-In . SVG Version: 6.00 Build 0)  -->
<svg version="1.1" id="Layer_1" xmlns="http://www.w3.org/2000/svg" xmlns:xlink="http://www.w3.org/1999/xlink" x="0px" y="0px"
	 viewBox="0 0 512 512" style="enable-background:new 0 0 512 512;" xml:space="preserve">
<path style="fill:#FFF3E6;" d="M140.29,199.012c-8.971-17.634-14.02-37.587-14.02-58.723c0-10.618,1.271-20.937,3.691-30.803
	c8.906-25.202,32.924-43.255,61.176-43.255c17.909,0,34.129,7.259,45.873,18.993c11.734,11.744,18.993,27.964,18.993,45.873
	c0-17.909,7.259-34.129,18.993-45.873c11.744-11.734,27.964-18.993,45.873-18.993c28.262,0,52.293,18.075,61.187,43.299
	c2.409,9.856,3.679,20.163,3.679,30.759c0,21.136-5.049,41.09-14.02,58.723c-10.032,19.733-24.97,36.56-43.211,48.868
	c-20.705,13.976-45.652,22.13-72.5,22.13s-51.795-8.154-72.5-22.13C165.259,235.572,150.322,218.744,140.29,199.012z
	 M340.655,136.388c0-10.927-8.861-19.787-19.787-19.787c-10.926,0-19.787,8.861-19.787,19.787s8.861,19.787,19.787,19.787
	C331.793,156.176,340.655,147.316,340.655,136.388z M210.922,136.388c0-10.927-8.861-19.787-19.787-19.787
	c-10.927,0-19.787,8.861-19.787,19.787s8.861,19.787,19.787,19.787C202.061,156.177,210.922,147.316,210.922,136.388z"/>
<g>
	<path style="fill:#CCC2B8;" d="M371.711,199.012c4.916,19.601,7.602,40.791,7.602,62.899c0,80.367-35.41,148.548-84.488,172.512
		c-11.932,5.823-24.66,9.038-37.886,9.181c39.73-1.259,71.771-82.124,71.771-181.694c0-4.718-0.077-9.402-0.21-14.032
		C346.742,235.572,361.679,218.744,371.711,199.012z"/>
	<path style="fill:#CCC2B8;" d="M382.053,109.53c-8.894-25.224-32.924-43.299-61.187-43.299c-17.909,0-34.129,7.259-45.873,18.993
		c-11.734,11.744-18.993,27.964-18.993,45.873c0-17.909-7.259-34.129-18.993-45.873c-11.744-11.734-27.964-18.993-45.873-18.993
		c-28.251,0-52.27,18.053-61.176,43.255c13.81-56.779,65.009-98.929,126.042-98.929C317.055,10.557,368.254,52.729,382.053,109.53z"
		/>
</g>
<circle style="fill:#FFFAF5;" cx="320.861" cy="136.393" r="19.787"/>
<path style="fill:#FFF3E6;" d="M328.501,247.88c0.133,4.629,0.21,9.314,0.21,14.032c0,99.57-32.041,180.434-71.771,181.693
	c-0.309,0.011-0.63,0.011-0.94,0.011c-0.309,0-0.63,0-0.94-0.011c-39.73-1.259-71.771-82.124-71.771-181.693
	c0-4.718,0.077-9.402,0.21-14.032c20.705,13.976,45.652,22.13,72.5,22.13S307.796,261.856,328.501,247.88z"/>
<g>
	<path style="fill:#CCC2B8;" d="M310.381,477.601c4.188,11.601-4.419,23.842-16.749,23.842h-37.631v-57.829h42.128L310.381,477.601z
		"/>
	<path style="fill:#CCC2B8;" d="M256.001,443.615v57.829h-37.631c-12.33,0-20.937-12.242-16.749-23.842l12.253-33.985h42.128
		V443.615z"/>
	<path style="fill:#CCC2B8;" d="M255.061,443.604c-13.225-0.144-25.953-3.359-37.886-9.181
		c-49.078-23.965-84.488-92.145-84.488-172.512c0-22.108,2.685-43.299,7.602-62.899c10.032,19.733,24.97,36.56,43.211,48.868
		c-0.133,4.629-0.21,9.314-0.21,14.032C183.29,361.48,215.331,442.345,255.061,443.604z"/>
</g>
<circle style="fill:#FFFAF5;" cx="191.14" cy="136.393" r="19.787"/>
<path d="M328.105,287.731c-5.806-0.466-10.902,3.863-11.371,9.674c-0.095,1.183-0.197,2.362-0.302,3.536
	c-0.521,5.807,3.763,10.937,9.571,11.458c0.321,0.029,0.639,0.043,0.955,0.043c5.403,0,10.009-4.128,10.502-9.614
	c0.111-1.238,0.217-2.48,0.319-3.728C338.247,293.29,333.916,288.2,328.105,287.731z"/>
<path d="M221.479,136.388c0-16.731-13.613-30.344-30.345-30.344s-30.345,13.613-30.345,30.344c0,16.732,13.613,30.345,30.345,30.345
	S221.479,153.121,221.479,136.388z M181.903,136.388c0-5.09,4.141-9.231,9.232-9.231c5.09,0,9.232,4.14,9.232,9.231
	c0,5.09-4.141,9.232-9.232,9.232C186.044,145.62,181.903,141.479,181.903,136.388z"/>
<path d="M320.866,166.734c16.732,0,30.344-13.613,30.344-30.345c0-16.731-13.613-30.344-30.344-30.344
	c-16.731,0-30.344,13.613-30.344,30.344C290.522,153.121,304.135,166.734,320.866,166.734z M320.866,127.158
	c5.089,0,9.231,4.14,9.231,9.231c0,5.09-4.141,9.232-9.231,9.232c-5.089,0-9.231-4.141-9.231-9.232
	C311.635,131.298,315.777,127.158,320.866,127.158z"/>
<path d="M108.652,443.615c0,5.83,4.726,10.557,10.557,10.557h79.632l-7.151,19.844c-3.132,8.677-1.836,18.366,3.467,25.918
	c5.305,7.555,13.982,12.066,23.212,12.066h75.262c9.23,0,17.907-4.511,23.212-12.066c5.303-7.552,6.599-17.241,3.468-25.914
	l-7.153-19.849h79.633c5.829,0,10.557-4.726,10.557-10.557s-4.727-10.557-10.557-10.557h-75.498
	c44.079-32.422,72.577-98.13,72.577-171.147c0-21.141-2.356-41.867-7.001-61.673c8.907-18.778,13.421-38.926,13.421-59.949
	c0-10.726-1.228-21.379-3.624-31.701c-0.087-0.666-0.233-1.333-0.454-1.993c-0.024-0.072-0.05-0.146-0.074-0.215
	c-7.387-29.755-24.694-56.689-48.813-75.895C318.279,10.541,288.083,0,256.001,0c-32.071,0-62.26,10.536-87.303,30.47
	c-24.224,19.282-41.587,46.353-48.92,76.231c-0.052,0.186-0.096,0.372-0.137,0.558c-2.603,10.718-3.928,21.828-3.928,33.03
	c0,21.026,4.515,41.172,13.421,59.947c-4.645,19.808-7.001,40.535-7.001,61.675c0,73.018,28.498,138.725,72.578,171.147h-75.5
	C113.378,433.058,108.652,437.784,108.652,443.615z M212.436,487.801c-0.65-0.926-2.038-3.426-0.886-6.62l9.733-27.009h24.16v36.715
	h-27.075C214.97,490.887,213.088,488.729,212.436,487.801z M300.451,481.185c1.153,3.191-0.236,5.69-0.887,6.616
	c-0.651,0.928-2.534,3.086-5.933,3.086h-27.074v-36.715h24.16L300.451,481.185z M346.024,364.611
	c-10.012,20.099-22.973,36.758-37.554,48.553c11.243-20.664,20.056-48.428,25.418-81.678c0.929-5.756-2.984-11.174-8.741-12.103
	c-5.756-0.928-11.174,2.985-12.102,8.741c-9.845,61.039-33.054,104.187-56.483,104.929c-0.185,0.006-0.378,0.004-0.562,0.004
	c-0.184,0-0.376,0.002-0.605-0.005c-28.706-0.91-60.642-69.481-61.528-166.984c19.217,9.512,40.376,14.497,62.133,14.497
	c21.757,0,42.916-4.985,62.133-14.496c-0.016,1.69-0.038,3.375-0.073,5.042c-0.119,5.828,4.509,10.652,10.338,10.771
	c0.074,0.001,0.148,0.002,0.221,0.002c5.729,0,10.432-4.586,10.55-10.34c0.065-3.175,0.098-6.416,0.098-9.633
	c0-2.796-0.031-5.703-0.084-8.671c10.207-7.528,19.35-16.402,27.16-26.335c1.586,11.45,2.413,23.147,2.413,35.005
	C368.757,299.243,360.895,334.756,346.024,364.611z M149.714,194.254c-0.054-0.108-0.102-0.22-0.16-0.324
	c-8.443-16.707-12.728-34.751-12.728-53.641c0-9.422,1.102-18.755,3.268-27.77c7.79-21.391,28.232-35.731,51.042-35.731
	c14.505,0,28.147,5.648,38.405,15.896c10.256,10.266,15.904,23.907,15.904,38.413v45.531c0,5.83,4.726,10.557,10.557,10.557
	c5.829,0,10.557-4.726,10.557-10.557v-45.531c0-14.506,5.649-28.147,15.897-38.405c10.266-10.256,23.907-15.904,38.413-15.904
	c22.828,0,43.274,14.358,51.052,35.778c2.157,9.004,3.257,18.327,3.257,27.724c0,19-4.331,37.147-12.874,53.938
	c-9.168,18.034-22.897,33.561-39.707,44.902c-19.696,13.295-42.724,20.323-66.594,20.323s-46.897-7.028-66.596-20.325
	C172.607,227.794,158.883,212.278,149.714,194.254z M256.001,21.113c34.195,0,65.477,14.369,87.425,38.031
	c-7.18-2.258-14.769-3.47-22.559-3.47c-20.141,0-39.082,7.842-53.341,22.088c-4.496,4.5-8.35,9.469-11.525,14.794
	c-3.177-5.327-7.032-10.298-11.531-14.802c-14.253-14.239-33.195-22.081-53.335-22.081c-7.791,0-15.38,1.212-22.561,3.471
	C190.523,35.483,221.806,21.113,256.001,21.113z M165.977,364.611c-14.871-29.854-22.733-65.367-22.733-102.7
	c0-11.858,0.828-23.555,2.413-35.005c7.81,9.933,16.953,18.807,27.159,26.334c-0.054,2.958-0.083,5.835-0.083,8.671
	c0,49.425,7.716,96.16,21.727,131.595c2.832,7.162,5.881,13.736,9.122,19.701C188.98,401.408,176.001,384.733,165.977,364.611z"/>
<g>
</g>
<g>
</g>
<g>
</g>
<g>
</g>
<g>
</g>
<g>
</g>
<g>
</g>
<g>
</g>
<g>
</g>
<g>
</g>
<g>
</g>
<g>
</g>
<g>
</g>
<g>
</g>
<g>
</g>
</svg>
